<svg version="1.1" id="Mode_Isolation" xmlns="http://www.w3.org/2000/svg" x="0" y="0" viewBox="0 0 53.16 31.2" xml:space="preserve"><style>.st0{fill:#fff}</style><path class="st0" d="M19.79 12.99c.5.87.71 1.85.92 2.92-.83.14-1.6.26-2.42.4.04-1.54.08-2.98.11-4.45.67.12 1.06.57 1.39 1.13m-4.18-2.49c.22.03.3.1.31.37.03 2.1.09 4.19.12 6.29.01.42.08.93-.55.96.1.46.25.85.26 1.25 0 1.38-.05 2.77-.08 4.15-.02.97-.05 1.94-.07 2.91.05.01.09.01.14.02.28-.51.56-1.02.85-1.53.19.14.33.26.52.4.02-.16.04-.25.05-.34.09-1.13.15-2.25.26-3.38.05-.5.22-.92.75-1.1.94-.31 1.86-.69 2.79-1.04.59-.22.79-.15 1.09.43.19.38.32.81.55 1.16.72 1.08 1.47 2.13 2.23 3.21.27-.27.51-.49.74-.71.06.06.11.09.14.14.05.07.09.15.13.23.55 1.19 1.48 1.82 2.69 2.03 1.22.22 2.36-.16 3.45-.75.58-.32 1.12-.35 1.71-.08.71.32 1.44.39 2.17-.06.12-.07.27-.08.41-.1.92-.13 1.84-.25 2.77-.38 0-.03 0-.05.01-.08-.84-.34-1.69-.68-2.51-1.01-.01-.38.14-.45.4-.38.22.06.44.09.66.13.75.14 1.48-.27 1.85-1.05-.43-.07-.85-.13-1.28-.2.01-.04.01-.09.02-.13.11-.02.21-.03.35-.05-.17-.26-.31-.53-.51-.73-.12-.12-.38-.25-.5-.19-.46.23-.63-.07-.76-.42-.15-.39-.26-.79-.38-1.19.11-.15.21-.29.34-.47-.24-.13-.45-.25-.7-.39-.19.43-.39.82-.53 1.23-.13.36-.29.54-.69.46-.64-.12-1.29-.17-1.93-.25-.73-.09-1.47-.2-2.26-.3.3-.5.56-.95.83-1.39-.03-.02-.06-.04-.1-.07-.41.46-.82.93-1.23 1.39-.03-.02-.06-.04-.1-.06.13-.21.23-.44.38-.63.74-.94 1.47-1.89 2.23-2.8.31-.38.64-.84 1.05-1 .74-.28 1.15-.89 1.64-1.44.62-.68 1.34-1.15 2.17-1.44.81-.28 1.3-.99 1.84-1.63.02-.02.02-.06.03-.09.21-.64.43-1.27.64-1.91.03-.09.04-.2.07-.32-.6-.02-1.16-.04-1.73-.07-1.44-.07-2.88-.12-4.31-.22-1.93-.12-3.83-.48-5.76-.15-.12.02-.23.17-.42.32.47.15.79.26 1.18.39-.2.17-.34.27-.46.4-.58.64-1.52.95-1.61 2.05.32.38.67.76.97 1.19.53.74.63.79 1.37.29.3-.2.57-.28.91-.18.51.15 1.04.23 1.57.35.29.07.58.18.91.29-.72.8-1.39 1.56-2.07 2.3-1.56 1.69-3.12 3.37-4.68 5.05-.48.52-.46.63-.2 1.28.11.28.08.66.04.98-.03.24-.18.48-.28.71-.04.01-.08.03-.11.04-.07-.22-.2-.43-.21-.65-.02-.42.04-.85.05-1.28.03-1.11.33-2.21-.13-3.32-.57-1.35-.96-2.78-1.48-4.16-.38-1.03-.83-2.04-1.25-3.06-.36-.89-.73-1.78-1.08-2.68-.34-.87-.67-1.75-1-2.62-.15-.42-.19-.94-.45-1.24-.34-.41-.85-.65-1.28-.96-.23.48-.43.9-.63 1.33-.03-.01-.06-.02-.1-.02-.08-.36-.15-.71-.23-1.1-.07.09-.12.15-.15.22-.61 1.43-1 2.91-1.24 4.45-.08.51-.18 1.03-.28 1.54-.06.32-.22.42-.49.25-.07-.04-.14-.07-.22-.1-.1.54-.05.65.39.71M44.17 14.65c.26.77.52 1.54.8 2.38-.73.12-1.43.23-2.14.35l.15-3.84c.43.08 1.01.61 1.19 1.11m-3.3-1.18c0 1.61.04 3.22.05 4.84 0 .14-.04.29-.08.44-.08.33-.22.66-.23.99-.03 1.17 0 2.34-.01 3.51-.01.88-.05 1.75-.08 2.76.49-.34.56-.83.75-1.25l.56.23c.08-1 .16-1.92.23-2.85.05-.73.3-1.06.92-1.27.7-.24 1.4-.51 2.09-.78.4-.16.77-.07.98.26.42.67.85 1.33 1.25 2.02.3.52.56 1.06.82 1.6.1.21.24.34.42.15.13-.14.23-.36.25-.56.04-.51-.01-1.03.04-1.54.2-1.93-.11-3.75-.86-5.47-.34-.8-.67-1.61-1-2.42-.43-1.06-.87-2.11-1.29-3.17-.38-.96-.77-1.93-1.12-2.91-.28-.78-.74-1.38-1.46-1.76l-.55 1.07c-.09-.26-.14-.44-.22-.62-.03-.07-.11-.12-.16-.18-.05.06-.14.12-.17.2-.2.77-.39 1.54-.59 2.32-.23.95-.47 1.89-.71 2.87-.2-.04-.37-.08-.55-.12-.03.03-.05.06-.08.1.1.13.18.3.31.38.41.28.49.67.49 1.16M9.83 16.97c-.22-.33-.44-.67-.66-1-.02.01-.04.01-.06.02.08.4.16.8.23 1.21l-.12.03c-.62-1.45-1.24-2.91-1.86-4.39 1.02.44 2.87 3.56 2.47 4.13m-5.48-5.46c0 .34.03.67.02 1-.03 2.09.09 4.16.53 6.19.3 1.35.45 2.73.35 4.15-.06.85-.05 1.71.36 2.47.18.33.37.34.55 0 .24-.46.41-.96.69-1.38.58-.86.59-1.78.53-2.75-.07-1.15-.1-2.3-.15-3.45.38.41.67.83.93 1.26.14.24.31.52.33.79.03.57.17 1.07.61 1.37.7.47 1 1.25 1.44 1.93.23.36.56.82.89.86.68.08 1.09.51 1.58.88.04.03.09.04.14.06.32-1.06.62-2.09.93-3.12-.03-.01-.06-.03-.08-.04-.08.09-.15.18-.21.25l-.57-1.11c-.28-.53-.42-1.08-.14-1.69.07-.16.08-.37.06-.54-.21-1.42.27-2.78.36-4.18.03-.5-.06-1-.11-1.5-.04-.4-.1-.79-.14-1.18h-.11c-.2.88-.44 1.75-.28 2.67.25 1.46.12 2.87-.61 4.23-.37-.48-.77-.9-1.06-1.4-.71-1.2-1.36-2.44-2.04-3.66-.68-1.23-1.34-2.48-2.05-3.69-.48-.77-1.01-1.5-1.16-2.46-.04-.25-.13-.49-.23-.88-.14.52-.24.89-.36 1.31-.19-.15-.33-.27-.5-.4-.18.7-.42 1.35-.5 2.01-.08.65-.01 1.33 0 2M14.62 16.65c.03-1.42.07-2.75.1-4.13-.4.24-.52 3.81-.1 4.13"/><path class="st0" d="M13.81 17.06c.03 0 .12-.1.12-.15-.01-.71-.03-1.42-.05-2.14-.06 0-.12.01-.17.01-.03.72-.06 1.43-.07 2.15-.01.05.11.12.17.13M13.81 13.82c.08-.51.17-1.01.25-1.52-.06-.01-.12-.02-.19-.03l-.21 1.53c.05.01.1.02.15.02"/></svg>